<?xml version="1.0" encoding="utf-8"?>
<!-- Generator: Adobe Illustrator 15.0.0, SVG Export Plug-In . SVG Version: 6.00 Build 0)  -->
<!DOCTYPE svg PUBLIC "-//W3C//DTD SVG 1.1//EN" "http://www.w3.org/Graphics/SVG/1.1/DTD/svg11.dtd">
<svg version="1.1" id="Layer_1" xmlns="http://www.w3.org/2000/svg" xmlns:xlink="http://www.w3.org/1999/xlink" x="0px" y="0px"
	 width="578.971px" height="328.482px" viewBox="0 0 578.971 328.482" enable-background="new 0 0 578.971 328.482"
	 xml:space="preserve">
<g>
	<path fill="#7A6659" d="M60.146,216.689c2.396,1.482,2.549,5.174,5.32,5.984c0.813,0.238,2.229-0.428,3.99-0.332
		c1.438,0.078,2.995,0.914,3.99,0.998c5.674,0.473,14.236-1.467,19.949-1.33c3.361,0.078,10.021,1.506,9.976,3.324
		c-0.026,1.076-5.833,3.188-6.317,3.324c-3.297,0.926-6.232,1.287-9.643,1.994c-3.327,0.691-7.807,0.715-9.643,1.996
		c-0.875,0.611-2.137,4.436-2.994,5.984c-2.778,5.031-6.07,9.191-8.977,14.963c-0.037,0.072-0.763,1.203-0.665,1.33
		c0.521,0.684,6.897,0.463,9.642,0.332c1.178-0.055,3.738-0.916,4.324-0.332c0.463,0.463-0.855,5.127-0.998,5.32
		c-1.47,2.002-10.681,4.227-13.966,4.32c-1.049,0.031-3.6-0.875-4.321-0.664c-1.709,0.5-3.851,5.602-5.652,8.646
		c-2.154,3.635-3.903,6.615-5.32,8.977c-4.152,6.92-7.443,13.83-11.638,16.957c-0.345,0.26-5.332,3.029-6.649,1.996
		c-0.799-0.625,1.188-7.23,1.994-9.975c5.61-19.076,15.564-33.135,25.271-49.543c1.104-1.869,4.824-6.529,4.654-7.648
		c-0.213-1.41-2.908-1.666-3.658-2.992c-1.043-1.848-0.852-4.658-0.664-6.648C58.359,221.466,59.532,219.343,60.146,216.689z
		 M288.908,226.663c-0.617-1.352-7.566-4.641-9.311-4.654c-4.213-0.037-7.839,4.803-10.308,7.314
		c-11.319,11.52-26.633,28.703-28.929,47.217c-0.887,7.162,1.527,13.926,5.986,15.959c8.947,4.08,16.547-6.145,19.616-10.309
		c0.7-0.947,5.103-6.658,4.988-7.646c-0.167-1.443-2.082,1.508-2.993,2.328c-3.544,3.188-8.643,7.258-11.971,8.977
		c0.012-0.006-4.297,2.004-5.319,1.33c-0.661-0.436-0.676-3.359-0.332-5.32c0.363-2.07,2.394-8.42,3.657-9.309
		c0.398-0.281,1.914,0.113,2.328,0c1.687-0.469,4.422-2.771,6.316-3.99c7.444-4.795,13.385-10.635,18.286-17.291
		C282.934,248.546,291.772,232.952,288.908,226.663z M256.324,265.898c5.668-11.457,14.857-24.285,24.271-31.586
		c4.483-3.48-2.933,10.869-2.992,10.973C272.258,254.398,265.736,261.282,256.324,265.898z M360.726,225.001
		c-2.161,0.137-5.557-0.912-6.315-0.332c-0.402,0.307-0.641,3.119-0.998,3.99c-2.283,5.551-6.232,10.482-9.312,15.627
		c-7.34,12.268-15.717,26.551-21.278,40.896c-1.043,2.691-3.117,6.777-2.66,9.977c0.381,2.672,3.994,6,6.65,5.652
		c3.934-0.516,5.563-9.064,7.313-12.969c1.062-2.365,1.963-3.947,3.324-6.648c0.936-1.857,2.455-6.262,3.658-6.65
		c1.01-0.328,4.09,1.238,5.983,1.33c9.512,0.463,19.689-5.381,26.935-11.307c3.623-2.963,6.772-6.111,9.309-9.643
		c2.684-3.734,5.607-8.061,6.65-12.635c2.942-12.896-6.865-20.688-16.957-19.949C368.794,222.65,364.866,224.74,360.726,225.001z
		 M377.683,230.986c0.925-0.104,3.367-0.795,4.324,0c3.219,2.676-2.666,10.75-3.99,12.637c-6.307,8.973-14.088,15.594-24.938,19.949
		c-3.119,1.252-8.426,3.418-6.318-0.664c3.728-7.223,8.957-13.332,12.968-19.951c1.487-2.455,2.905-5.813,4.655-7.314
		C367.403,233.046,372.864,231.532,377.683,230.986z M538.946,225.999c-0.009,1.305-1.894,5.018-2.992,7.314
		c-6.082,12.719-11.734,21.76-18.287,34.58c-0.988,1.932-5.279,7.938-4.656,11.307c1.273,6.873,7.23-1.336,9.644-3.99
		c2.594-2.854,3.85-5.67,5.651-7.98c0.966-1.236,2.402-2.055,3.326-3.326c0.978-1.342,1.707-2.734,2.66-4.32
		c4.936-8.229,11.988-18.043,15.295-26.27c0.564-1.402,1.119-3.889,0.998-5.318c-0.234-2.725-9.562-8.395-12.637-5.32
		C537.142,223.48,538.956,224.685,538.946,225.999z M402.62,234.976c-1.908,3.275-7.207,11.246,1.996,8.314
		c1.93-0.615,10.619-7.748,11.305-9.311c1.441-3.285-5.475-5.896-7.979-5.32C404.792,229.384,404.071,232.491,402.62,234.976z
		 M389.321,278.534c-0.515,0.4-5.355,4.395-5.986,3.324c-0.522-0.893,1.15-1.896,0.998-1.662c4.379-6.719,7.4-12.363,11.971-18.287
		c1.568-2.035,4.377-4.398,3.99-6.982c-0.221-1.463-4.865-5.248-7.647-4.988c-2.959,0.277-4.998,5.287-6.982,8.314
		c-4.596,7.008-11.377,17.256-12.303,25.602c-0.166,1.492-0.117,3.844,0,4.324c0.397,1.637,3.485,5.66,5.985,5.652
		c2.82-0.01,7.162-5.582,8.646-6.982c6.613-6.252,12.231-14.008,17.289-21.613C400.075,269.347,395.19,273.937,389.321,278.534z
		 M108.027,270.554c-0.459-0.709,3.041-5.805,4.322-7.646c1.981-2.848,4.25-5.652,3.657-8.313c-0.315-1.426-3.747-3.148-5.983-2.992
		c-0.922,0.063-3.135,1.221-3.99,1.994c-2.696,2.441-3.568,5.102-6.982,8.646c-1.146,1.189-4.537,4.555-5.984,5.65
		c-0.254,0.193-2.065,1.49-2.328,0.998c-0.694-1.305,6.342-9.467,6.65-10.641c0.916-3.486-5.285-8.258-8.313-7.979
		c-2.636,0.24-5.175,6.395-6.982,8.979c-4.478,6.395-13.739,19.521-12.635,28.262c0.577,4.576,4.649,5.807,6.649,5.652
		c4.459-0.342,4.438-5.996,6.649-9.311c1.683-2.52,3.863-4.346,6.65-6.648c0.647-0.537,7.313-5.961,7.979-5.652
		c0.617,0.283,1.036,4.588,2.328,5.984c1.769,1.912,5.341,1.668,7.647,0.332c2.943-1.703,4.484-5.781,5.984-9.977
		C111.378,268.757,108.908,271.913,108.027,270.554z M405.946,257.919c2.024,4.379,1.35,4.803,5.983,6.316
		c2.427,0.793,5.549,0.521,2.992,2.328c-4.986,3.527-17.514,11.906-20.281,15.627c-2.006,2.695-1.569,10.104,0.996,10.975
		c2.338,0.793,7.435-2.938,11.308-4.324c4.582-1.641,8.116-3.203,11.969-3.656c12.719-1.498-3.76,6.5-3.324,7.646
		c0.195,0.514,4.051,0.922,6.65-0.332c5.063-2.443,7.242-9.156,2.326-12.635c-1.978-1.4-5.634-1.771-8.978-1.994
		c-2.805-0.189-7.82,0.543-4.322-1.664c3.736-2.355,9.507-5.568,12.636-7.314c3.008-1.68,12.895-6.094,13.965-8.977
		c0.274-0.74-0.49-1.381-0.332-2.994c0.16-1.641,1.258-2.313,0.996-3.324c-0.373-1.439-3.287-2.752-5.318-2.992
		c-7.268-0.861-17.024,2.93-23.274,1.662c-1.396-0.283-3.56-3.299-5.652-1.662C402.485,252.009,405.169,256.24,405.946,257.919z
		 M442.521,257.919c2.024,4.379,1.352,4.803,5.985,6.316c2.424,0.793,5.549,0.521,2.992,2.328
		c-4.986,3.527-17.514,11.908-20.283,15.627c-2.006,2.695-1.567,10.104,0.998,10.975c2.338,0.793,7.433-2.938,11.305-4.324
		c4.582-1.641,8.117-3.203,11.972-3.656c12.717-1.498-3.76,6.5-3.326,7.646c0.195,0.514,4.053,0.922,6.65-0.332
		c5.063-2.443,7.241-9.156,2.327-12.635c-1.979-1.4-5.633-1.771-8.979-1.994c-2.805-0.189-7.82,0.543-4.322-1.664
		c3.736-2.355,9.506-5.568,12.635-7.314c3.009-1.68,12.896-6.094,13.966-8.977c0.274-0.74-0.488-1.381-0.332-2.994
		c0.16-1.641,1.26-2.313,0.998-3.324c-0.373-1.439-3.289-2.752-5.32-2.992c-7.269-0.861-17.023,2.93-23.275,1.662
		c-1.396-0.283-3.559-3.299-5.651-1.662C439.063,252.009,441.745,256.24,442.521,257.919z M278.602,317.437
		c3.575-2.49,7.803-8.182,10.971-12.635c6.741-9.477,11.471-20.176,17.288-30.258c2.533-4.387,8.441-10.926,7.98-15.959
		c-0.25-2.738-7.701-8.158-10.972-5.32c-0.675,0.582-0.129,2.578-0.332,3.324c-0.511,1.861-3.47,5.516-5.32,7.979
		c-4.788,6.371-9.594,12.07-15.295,17.955c-5.05,5.219-2.963,0.096-0.664-3.988c1.559-2.768,2.164-3.377,3.656-5.652
		c3.102-4.73,7.996-10.465,7.313-15.627c-0.297-2.26-9.733-10.146-12.301-5.652c0.076-0.135,1.33,1.334,1.33,1.328
		c0.404,2.004-3.582,8.652-5.651,12.637c-3.02,5.811-8.465,14.008-5.319,21.611c0.604,1.461,4.353,4.604,7.647,4.322
		c4.526-0.383,5.563-5.822,10.639-6.982c-5.441,11.963-12.318,24.254-18.286,34.58C273.869,319.343,276.875,318.638,278.602,317.437
		z M141.943,279.865c-1.721-1.725,5.193-8.084,4.986-9.977c-0.207-1.885-6.849-4.699-8.978-3.99
		c-0.863,0.289-1.177,1.973-1.995,2.994c-2.377,2.965-8.661,8.395-11.971,11.637c-0.555,0.545-5.789,5.494-4.321,2.328
		c2.302-4.969,5.667-8.588,9.31-12.303c4.189-4.273,8.474-10.277,13.633-9.643c1.447,0.178,3.363,2.922,5.984,1.662
		c1.598-0.768,2.395-3.107,0.998-5.984c-0.781-1.613-4.4-2.689-6.982-3.326c-2.558-0.631-9.875-3.043-11.306-1.994
		c-3.657,2.686-8.544,6.992-12.635,12.303c-3.646,4.73-7.72,10.105-9.31,15.295c-1.606,5.24,0.638,10.584,4.322,12.635
		c0.815,0.455,4.266,1.83,5.319,1.664c2.226-0.354,5.248-5.252,6.981-7.316c1.213-1.441,3.021-4.332,4.654-5.982
		c3.354-3.395,1.182,2.486,1.663,6.316c0.28,2.234,2.229,3.959,4.655,3.988c3.449,0.045,12.541-6.668,10.64-12.635
		C145.77,278.681,143.516,281.441,141.943,279.865z M499.712,279.865c-1.721-1.725,5.193-8.084,4.986-9.977
		c-0.205-1.885-6.849-4.699-8.978-3.99c-0.862,0.289-1.176,1.973-1.996,2.994c-2.377,2.965-8.659,8.395-11.969,11.637
		c-0.555,0.545-5.789,5.494-4.322,2.328c2.302-4.969,5.668-8.588,9.31-12.303c4.19-4.273,8.475-10.277,13.633-9.643
		c1.447,0.178,3.363,2.922,5.986,1.662c1.598-0.768,2.393-3.107,0.996-5.984c-0.781-1.613-4.4-2.689-6.982-3.326
		c-2.557-0.631-9.875-3.043-11.305-1.994c-3.66,2.688-8.511,6.949-12.636,12.303c-3.627,4.707-7.737,10.166-9.311,15.295
		c-1.607,5.242,0.639,10.584,4.322,12.635c0.817,0.455,4.266,1.83,5.319,1.664c2.228-0.354,5.248-5.252,6.982-7.316
		c1.213-1.441,3.021-4.332,4.656-5.982c3.354-3.398,1.19,2.576,1.662,6.316c0.272,2.182,2.153,3.957,4.653,3.988
		c4.14,0.053,12.232-6.719,10.642-12.635C503.538,278.681,501.284,281.441,499.712,279.865z M506.362,295.825
		c0.883,2.43,5.889,5.953,7.979,5.318c1.01-0.307,4.795-6.59,4.656-8.645c-0.205-3.014-7.504-5.992-10.31-4.988
		C506.214,288.398,505.175,292.558,506.362,295.825z M227.063,287.179c-1.268-0.479-1.064-2.938-1.33-3.656
		c-0.871-2.363-5.111-12.014-3.324-14.963c0.15-0.248,5.529-1.979,6.318-2.328c1.735-0.768,4.455-1.949,5.983-2.658
		c2.029-0.943,10.426-4.182,10.974-6.318c1.461-5.707-8.65-6.393-12.304-4.654c-2.144,1.02-4.351,4.176-7.313,6.316
		c-0.948,0.686-2.258,1.545-3.99,2.66c-1.17,0.754-5.426,4.092-3.658,0.998c5.252-9.189,10.549-15.527,15.961-23.607
		c1.541-2.303,5.67-5.912,5.319-8.645c-0.515-4.02-10.669-6.457-13.3-2.66c-1.17,1.688-1.496,3.9-2.66,5.65
		c-8.229,12.377-15.293,23.395-23.274,36.244c0-0.666,0-1.33,0-1.996c-1.595,1.262-3.524,3.445-6.317,5.652
		c-1.639,1.295-9.996,8.002-6.649,1.996c1.597-2.867,0.675-0.422,1.662-1.996c2.432-3.879,7.67-10.244,8.646-13.299
		c1.434-4.492-1.381-8.5-5.984-7.98c-2.418,0.271-5.526,3.852-7.98,5.984c-8.307,7.227-13.779,12.898-21.943,19.951
		c2.321-5.688,7.567-11.814,12.302-15.629c1.508-1.215,4.323-3.139,4.323-4.986c0-3.969-5.23-4.316-7.647-5.32
		c-1.394-0.58-2.281-1.969-3.658-1.662c-1.368,0.305-1.672,2.695-2.659,4.322c-4.252,7.004-14.783,18.48-15.961,27.93
		c-1.064,8.559,4.625,12.609,9.643,8.646c7.695-6.08,12.912-15.521,20.283-20.615c-3.383,6.1-6.073,18.51,0.998,21.279
		c6.715,2.629,11.769-8.209,15.627-10.973c-0.263,1.813-1.489,3.461-2.326,5.984c-0.112,0.338-2.166,5.816-0.666,7.314
		c1.048,1.047,4.811-0.123,5.652-0.664c2.479-1.596,2.963-4.895,4.654-7.648c1.1-1.787,7.883-11.559,8.979-11.305
		c0.92,0.213,2.672,6.287,4.322,8.979c1.385,2.254,4.303,6.334,5.984,7.646c6.684,5.221,15.322-2.566,12.636-9.643
		C232.012,283.181,229.575,288.132,227.063,287.179z"/>
	<g>
		<g>
			<path fill="#7A6659" d="M188.802,118.639h10.248v2.172h-7.819v3.595h6.932v2.172h-6.932v3.712h7.918v2.172h-10.347V118.639z"/>
			<path fill="#7A6659" d="M202.684,130.447l1.461-1.738c1.322,1.146,2.666,1.797,4.363,1.797c1.5,0,2.448-0.711,2.448-1.737v-0.039
				c0-0.986-0.554-1.521-3.12-2.112c-2.941-0.711-4.602-1.579-4.602-4.126v-0.04c0-2.369,1.976-4.009,4.72-4.009
				c2.014,0,3.612,0.611,5.015,1.737l-1.303,1.836c-1.244-0.928-2.488-1.421-3.751-1.421c-1.422,0-2.251,0.73-2.251,1.639v0.039
				c0,1.066,0.632,1.54,3.297,2.172c2.922,0.712,4.423,1.759,4.423,4.049v0.039c0,2.587-2.034,4.127-4.936,4.127
				C206.336,132.658,204.342,131.927,202.684,130.447z"/>
			<path fill="#7A6659" d="M220.928,120.89h-4.383v-2.251h11.215v2.251h-4.383v11.57h-2.447v-11.57H220.928z"/>
			<path fill="#7A6659" d="M229.498,129.735h2.626v2.726h-2.626V129.735z"/>
		</g>
		<g>
			<path fill="#7A6659" d="M318.394,130.546l4.76-4.048c1.896-1.619,2.586-2.488,2.586-3.731c0-1.362-0.968-2.151-2.23-2.151
				s-2.133,0.689-3.18,2.072l-1.737-1.361c1.323-1.837,2.626-2.884,5.096-2.884c2.704,0,4.561,1.658,4.561,4.126v0.04
				c0,2.173-1.146,3.356-3.594,5.352l-2.844,2.369h6.575v2.133h-9.99v-1.916H318.394z"/>
			<path fill="#7A6659" d="M332.235,125.59v-0.04c0-3.948,2.407-7.147,6.042-7.147c3.612,0,6.002,3.159,6.002,7.108v0.039
				c0,3.949-2.409,7.148-6.042,7.148C334.604,132.698,332.235,129.539,332.235,125.59z M341.771,125.59v-0.04
				c0-2.725-1.401-4.955-3.534-4.955c-2.132,0-3.495,2.172-3.495,4.916v0.039c0,2.726,1.383,4.956,3.535,4.956
				C340.429,130.506,341.771,128.295,341.771,125.59z"/>
			<path fill="#7A6659" d="M350.401,121.009l-2.488,0.691l-0.514-1.976l3.731-1.185h1.678v13.92h-2.407V121.009z"/>
			<path fill="#7A6659" d="M364.42,129.36h-6.97l-0.454-1.737l7.681-9.082h2.073v8.826h1.975v1.993h-1.975v3.101h-2.33V129.36z
				 M364.42,127.367v-5.471l-4.541,5.471H364.42z"/>
		</g>
	</g>
	<g>
		<path fill="#7A6659" d="M386.508,39.545l-13.424-13.663c-1.929-1.964-4.508-3.046-7.263-3.046c-2.686,0-5.218,1.037-7.134,2.919
			l-14.966,14.701c-1.939,1.906-3.021,4.454-3.045,7.172c-0.022,2.72,1.013,5.286,2.918,7.227l13.425,13.662
			c1.93,1.964,4.51,3.046,7.265,3.046c2.685,0,5.218-1.036,7.133-2.918l14.964-14.702c1.94-1.904,3.021-4.452,3.046-7.173
			C389.452,44.05,388.414,41.483,386.508,39.545z"/>
		<path fill="#7A6659" d="M189.893,24.881c-12.219,0-22.16,9.939-22.16,22.158s9.94,22.159,22.16,22.159
			c12.219,0,22.158-9.94,22.158-22.159C212.05,34.82,202.109,24.881,189.893,24.881z"/>
		<path fill="#7A6659" d="M390.102,37.092l-13.423-13.663c-5.296-5.39-13.958-5.466-19.347-0.17L342.368,37.96
			c-5.391,5.295-5.467,13.957-0.171,19.348l5.357,5.454l-68.563,60.523l-68.663-60.61c3.333-4.329,5.32-9.749,5.32-15.636
			c0-14.17-11.488-25.658-25.659-25.658S164.33,32.869,164.33,47.039c0,14.172,11.488,25.659,25.659,25.659
			c6.845,0,13.059-2.687,17.659-7.055l68.319,60.309l-87.313,77.071l2.646,2.998l87.688-77.402l87.687,77.402l2.646-2.998
			l-87.313-77.071l68.351-60.334l5.258,5.352c5.296,5.39,13.958,5.467,19.347,0.171l14.964-14.702
			C395.321,51.143,395.396,42.48,390.102,37.092z M189.893,70.198c-12.771,0-23.16-10.391-23.16-23.159
			c0-12.77,10.39-23.158,23.16-23.158c12.77,0,23.158,10.389,23.158,23.158C213.051,59.807,202.661,70.198,189.893,70.198z
			 M387.081,54.654l-14.964,14.702c-2.104,2.067-4.886,3.205-7.834,3.205c-3.025,0-5.858-1.188-7.978-3.345l-13.424-13.662
			c-2.093-2.131-3.229-4.949-3.205-7.936c0.025-2.985,1.213-5.783,3.345-7.877l14.965-14.701c2.104-2.067,4.887-3.206,7.835-3.206
			c3.024,0,5.856,1.188,7.976,3.345l13.424,13.663c2.095,2.13,3.231,4.948,3.205,7.936S389.211,52.562,387.081,54.654z"/>
	</g>
	<path fill="#7A6659" d="M312.47,61.12h-26.305h-2.924h-26.306c-11.006,0-15.024,7.783-15.19,8.113l-0.653,1.31l1.309,0.651
		c0.311,0.156,7.86,3.81,29.15,3.81c3.977,0,8.09,0,14.713-0.732c1.229-0.052,1.33-1.064,1.469-2.455l0.451-4.506
		c0.362-0.205,0.678-0.346,0.903-0.346c2.191,0,5.846,2.193,9.5,2.193c3.652,0,6.574-2.193,8.767-2.193
		c1.462,0,2.191,2.193,3.654,2.193c1.461,0,2.922-1.463,2.922-3.654C313.931,62.581,312.47,61.12,312.47,61.12z M284.829,71.483
		c-5.822,0.598-9.608,0.598-13.278,0.598c-15.179,0-23.137-1.915-26.252-2.911c1.543-1.907,5.115-5.127,11.639-5.127h26.08
		c-0.076,2.093,0.033,4.624,0.955,5.115c0.289,0.153,0.67,0.107,1.094-0.042C284.979,69.977,284.895,70.83,284.829,71.483z
		 M289.087,65.504c-0.808,0-1.461-0.654-1.461-1.461c0-0.808,0.653-1.461,1.461-1.461s1.462,0.653,1.462,1.461
		C290.549,64.849,289.895,65.504,289.087,65.504z M298.587,65.504c-0.809,0-1.463-0.654-1.463-1.461
		c0-0.808,0.654-1.461,1.463-1.461c0.807,0,1.461,0.653,1.461,1.461C300.048,64.849,299.394,65.504,298.587,65.504z M307.354,65.504
		c-0.807,0-1.46-0.654-1.46-1.461c0-0.808,0.652-1.461,1.46-1.461s1.462,0.653,1.462,1.461
		C308.815,64.849,308.161,65.504,307.354,65.504z"/>
	<path fill="#7A6659" d="M294.036,167.115c-0.695-2.338-1.786-4.529-3.476-6.276c-0.449-0.463-0.927-0.896-1.404-1.326
		c-0.374-0.338-1.303-0.887-1.496-1.342c0.984,2.319,1.972,4.723,1.229,7.264c-0.336,1.148-1.607,3.902-3.264,3.201
		c-1.566-0.664-1.384-3.949-1.52-5.273c-0.33-3.257-1.049-6.506-2.787-9.321c-0.944-1.535-2.184-2.9-3.742-3.826
		c-2.049-1.215-4.172-2.033-6.502-1.151c0.513-0.192,1.863,1.359,2.117,1.658c0.815,0.968,1.496,2.113,1.86,3.331
		c0.74,2.474,0.095,5.292-0.77,7.649c-1.789,4.88-4.773,9.271-6.206,14.289c-0.499,1.75-0.842,3.547-0.936,5.365
		c-0.295,5.73,2.68,10.979,7.392,14.184c1.069,0.727,2.97,1.639,4.323,1.168c-3.955-2.113-5.27-3.852-5.879-6.342
		c-1.416-5.771,3.984-9.436,6.319-14c0.622-1.217,1.073-2.551,0.916-3.93c-0.06-0.512-0.644-3.039-1.419-2.914
		c2.352-0.377,3.882,1.188,4.688,3.23c0.847,2.148,1.351,4.361,0.977,6.646c-0.125,0.768-0.701,3.156,0.406,3.313
		c1.527,0.215,2.836-1.811,2.522-3.762c-0.161-0.896-0.321-2.299-0.321-2.299c1.621,1.996,2.355,3.994,2.594,6.188
		c0.425,3.922-1.246,9.076-4.389,12.277c1.321-1.346,3.002-2.275,4.278-3.715c1.304-1.467,2.297-3.162,3.075-4.961
		c1.739-4.02,2.757-8.563,2.474-12.953C294.961,171.394,294.656,169.197,294.036,167.115z"/>
</g>
<path fill="#C8BCB4" d="M59.147,215.022c2.395,1.482,2.548,5.174,5.32,5.985c0.812,0.237,2.228-0.429,3.99-0.333
	c1.438,0.079,2.995,0.914,3.99,0.998c5.674,0.474,14.236-1.466,19.95-1.33c3.361,0.079,10.021,1.506,9.975,3.324
	c-0.027,1.076-5.833,3.188-6.317,3.325c-3.297,0.926-6.233,1.287-9.643,1.994c-3.327,0.69-7.807,0.715-9.643,1.995
	c-0.875,0.611-2.136,4.436-2.993,5.985c-2.779,5.03-6.071,9.19-8.977,14.963c-0.037,0.071-0.763,1.202-0.665,1.329
	c0.521,0.685,6.897,0.463,9.642,0.333c1.177-0.056,3.738-0.917,4.323-0.333c0.463,0.464-0.855,5.127-0.998,5.32
	c-1.469,2.003-10.68,4.227-13.965,4.321c-1.049,0.031-3.6-0.876-4.322-0.665c-1.709,0.5-3.85,5.603-5.652,8.646
	c-2.154,3.636-3.903,6.616-5.32,8.978c-4.152,6.92-7.444,13.83-11.638,16.957c-0.345,0.259-5.332,3.029-6.65,1.995
	c-0.798-0.625,1.188-7.229,1.995-9.975c5.61-19.075,15.565-33.135,25.271-49.543c1.105-1.868,4.824-6.528,4.655-7.647
	c-0.214-1.41-2.908-1.666-3.658-2.992c-1.044-1.849-0.852-4.658-0.665-6.649C57.36,219.8,58.532,217.677,59.147,215.022z
	 M287.908,224.997c-0.617-1.353-7.566-4.641-9.311-4.654c-4.212-0.037-7.838,4.803-10.307,7.314
	c-11.319,11.519-26.633,28.702-28.928,47.216c-0.888,7.162,1.527,13.927,5.985,15.96c8.948,4.08,16.547-6.146,19.617-10.309
	c0.7-0.948,5.103-6.658,4.988-7.646c-0.167-1.443-2.082,1.508-2.993,2.327c-3.544,3.188-8.643,7.259-11.97,8.978
	c0.011-0.006-4.297,2.003-5.32,1.33c-0.661-0.436-0.676-3.36-0.332-5.32c0.363-2.07,2.393-8.42,3.657-9.31
	c0.398-0.28,1.914,0.114,2.328,0c1.687-0.469,4.422-2.771,6.317-3.99c7.444-4.794,13.385-10.634,18.286-17.29
	C281.933,246.879,290.772,231.285,287.908,224.997z M255.324,264.232c5.668-11.458,14.857-24.286,24.271-31.587
	c4.484-3.479-2.932,10.869-2.992,10.974C271.258,252.731,264.737,259.616,255.324,264.232z M359.726,223.335
	c-2.161,0.137-5.557-0.912-6.315-0.332c-0.402,0.306-0.641,3.119-0.998,3.989c-2.283,5.551-6.232,10.482-9.312,15.628
	c-7.34,12.267-15.717,26.55-21.278,40.896c-1.043,2.69-3.117,6.776-2.66,9.977c0.381,2.672,3.994,6,6.65,5.651
	c3.934-0.515,5.563-9.063,7.313-12.968c1.062-2.366,1.963-3.947,3.324-6.648c0.936-1.857,2.455-6.262,3.658-6.65
	c1.01-0.328,4.09,1.237,5.983,1.33c9.512,0.463,19.689-5.382,26.935-11.307c3.623-2.963,6.772-6.111,9.309-9.643
	c2.684-3.734,5.607-8.062,6.65-12.635c2.942-12.896-6.865-20.688-16.957-19.95C367.794,220.984,363.866,223.073,359.726,223.335z
	 M376.683,229.32c0.925-0.104,3.367-0.795,4.324,0c3.219,2.675-2.666,10.749-3.99,12.636c-6.307,8.973-14.088,15.595-24.938,19.95
	c-3.119,1.252-8.426,3.418-6.318-0.665c3.728-7.223,8.957-13.332,12.968-19.95c1.487-2.455,2.905-5.813,4.655-7.314
	C366.403,231.38,371.864,229.865,376.683,229.32z M537.946,224.333c-0.009,1.304-1.894,5.018-2.992,7.313
	c-6.082,12.72-11.734,21.76-18.287,34.58c-0.988,1.933-5.279,7.938-4.656,11.307c1.273,6.874,7.23-1.336,9.644-3.99
	c2.594-2.853,3.85-5.669,5.651-7.98c0.966-1.235,2.402-2.054,3.326-3.325c0.978-1.343,1.707-2.734,2.66-4.321
	c4.936-8.229,11.988-18.042,15.295-26.269c0.564-1.403,1.119-3.889,0.998-5.319c-0.234-2.725-9.562-8.395-12.637-5.319
	C536.142,221.814,537.956,223.019,537.946,224.333z M401.62,233.31c-1.908,3.274-7.207,11.246,1.996,8.313
	c1.93-0.615,10.619-7.747,11.305-9.311c1.441-3.284-5.475-5.896-7.979-5.319C403.792,227.717,403.071,230.824,401.62,233.31z
	 M388.321,276.868c-0.515,0.4-5.355,4.395-5.986,3.323c-0.522-0.892,1.15-1.896,0.998-1.661c4.379-6.719,7.4-12.364,11.971-18.287
	c1.568-2.035,4.377-4.399,3.99-6.983c-0.221-1.463-4.865-5.247-7.647-4.987c-2.959,0.276-4.998,5.287-6.982,8.313
	c-4.596,7.008-11.377,17.256-12.303,25.603c-0.166,1.492-0.117,3.843,0,4.323c0.397,1.637,3.485,5.66,5.985,5.652
	c2.82-0.009,7.162-5.582,8.646-6.982c6.613-6.252,12.231-14.008,17.289-21.613C399.075,267.681,394.19,272.271,388.321,276.868z
	 M107.028,268.888c-0.46-0.709,3.04-5.806,4.322-7.646c1.981-2.848,4.249-5.653,3.657-8.313c-0.316-1.425-3.747-3.147-5.984-2.992
	c-0.922,0.063-3.135,1.221-3.99,1.995c-2.696,2.441-3.568,5.101-6.982,8.646c-1.146,1.189-4.538,4.556-5.985,5.651
	c-0.254,0.192-2.065,1.489-2.327,0.998c-0.695-1.305,6.341-9.467,6.649-10.641c0.917-3.486-5.284-8.258-8.313-7.979
	c-2.636,0.241-5.175,6.396-6.982,8.979c-4.478,6.396-13.739,19.521-12.635,28.263c0.577,4.575,4.65,5.806,6.649,5.652
	c4.459-0.343,4.438-5.997,6.65-9.312c1.682-2.519,3.863-4.346,6.65-6.648c0.647-0.536,7.313-5.96,7.979-5.652
	c0.617,0.283,1.036,4.588,2.328,5.984c1.769,1.913,5.341,1.668,7.647,0.333c2.943-1.704,4.484-5.782,5.984-9.977
	C110.378,267.091,107.908,270.247,107.028,268.888z M404.946,256.253c2.024,4.379,1.35,4.803,5.983,6.316
	c2.427,0.792,5.549,0.521,2.992,2.327c-4.986,3.527-17.514,11.907-20.281,15.628c-2.006,2.694-1.569,10.103,0.996,10.974
	c2.338,0.793,7.435-2.937,11.308-4.323c4.582-1.641,8.116-3.203,11.969-3.657c12.719-1.498-3.76,6.5-3.324,7.647
	c0.195,0.514,4.051,0.922,6.65-0.332c5.063-2.444,7.242-9.156,2.326-12.636c-1.978-1.399-5.634-1.771-8.978-1.994
	c-2.805-0.188-7.82,0.543-4.322-1.663c3.736-2.355,9.507-5.568,12.636-7.314c3.008-1.68,12.895-6.095,13.965-8.978
	c0.274-0.74-0.49-1.38-0.332-2.993c0.16-1.642,1.258-2.313,0.996-3.324c-0.373-1.44-3.287-2.752-5.318-2.993
	c-7.268-0.861-17.024,2.93-23.274,1.663c-1.396-0.283-3.56-3.3-5.652-1.663C401.485,250.343,404.169,254.573,404.946,256.253z
	 M441.521,256.253c2.024,4.379,1.352,4.803,5.985,6.316c2.424,0.792,5.549,0.521,2.992,2.327
	c-4.986,3.527-17.514,11.908-20.283,15.628c-2.006,2.694-1.567,10.103,0.998,10.974c2.338,0.793,7.433-2.937,11.305-4.323
	c4.582-1.641,8.117-3.203,11.972-3.657c12.717-1.498-3.76,6.5-3.326,7.647c0.195,0.514,4.053,0.922,6.65-0.332
	c5.063-2.444,7.241-9.156,2.327-12.636c-1.979-1.399-5.633-1.771-8.979-1.994c-2.805-0.188-7.82,0.543-4.322-1.663
	c3.736-2.355,9.506-5.568,12.635-7.314c3.009-1.68,12.896-6.095,13.966-8.978c0.274-0.74-0.488-1.38-0.332-2.993
	c0.16-1.642,1.26-2.313,0.998-3.324c-0.373-1.44-3.289-2.752-5.32-2.993c-7.269-0.861-17.023,2.93-23.275,1.663
	c-1.396-0.283-3.559-3.3-5.651-1.663C438.063,250.343,440.745,254.573,441.521,256.253z M277.601,315.771
	c3.576-2.49,7.803-8.183,10.971-12.635c6.741-9.477,11.471-20.177,17.288-30.258c2.533-4.388,8.441-10.926,7.98-15.96
	c-0.25-2.738-7.701-8.158-10.972-5.32c-0.675,0.583-0.129,2.578-0.332,3.325c-0.511,1.861-3.47,5.516-5.32,7.979
	c-4.788,6.371-9.594,12.069-15.295,17.955c-5.05,5.218-2.963,0.096-0.664-3.988c1.559-2.769,2.164-3.377,3.656-5.653
	c3.102-4.729,7.996-10.465,7.313-15.627c-0.297-2.259-9.733-10.146-12.301-5.652c0.076-0.134,1.33,1.334,1.33,1.329
	c0.404,2.004-3.582,8.651-5.651,12.636c-3.02,5.812-8.465,14.008-5.32,21.612c0.604,1.461,4.352,4.603,7.647,4.322
	c4.527-0.383,5.564-5.822,10.639-6.982c-5.441,11.962-12.318,24.254-18.286,34.58C272.869,317.677,275.875,316.972,277.601,315.771z
	 M140.943,278.198c-1.721-1.726,5.194-8.085,4.987-9.977c-0.207-1.885-6.849-4.7-8.978-3.99c-0.863,0.288-1.176,1.972-1.995,2.993
	c-2.377,2.966-8.661,8.395-11.97,11.637c-0.555,0.545-5.79,5.494-4.322,2.328c2.302-4.968,5.667-8.587,9.31-12.303
	c4.189-4.273,8.473-10.277,13.633-9.643c1.447,0.178,3.363,2.922,5.984,1.662c1.598-0.768,2.394-3.107,0.998-5.984
	c-0.782-1.612-4.401-2.688-6.982-3.325c-2.558-0.631-9.876-3.044-11.306-1.995c-3.658,2.686-8.544,6.993-12.635,12.304
	c-3.646,4.73-7.72,10.105-9.31,15.295c-1.606,5.239,0.638,10.584,4.322,12.635c0.816,0.455,4.266,1.83,5.32,1.663
	c2.226-0.354,5.248-5.251,6.982-7.315c1.212-1.441,3.021-4.332,4.654-5.983c3.353-3.395,1.182,2.486,1.663,6.316
	c0.28,2.234,2.23,3.959,4.655,3.989c3.45,0.044,12.541-6.668,10.64-12.635C144.77,277.015,142.516,279.775,140.943,278.198z
	 M498.712,278.198c-1.721-1.726,5.193-8.085,4.986-9.977c-0.205-1.885-6.849-4.7-8.978-3.99c-0.862,0.288-1.176,1.972-1.996,2.993
	c-2.377,2.966-8.659,8.396-11.969,11.637c-0.555,0.545-5.789,5.494-4.322,2.328c2.302-4.968,5.668-8.587,9.31-12.303
	c4.19-4.273,8.475-10.277,13.633-9.643c1.447,0.178,3.363,2.922,5.986,1.662c1.598-0.768,2.393-3.107,0.996-5.984
	c-0.781-1.612-4.4-2.688-6.982-3.325c-2.557-0.631-9.875-3.044-11.305-1.995c-3.66,2.688-8.511,6.949-12.636,12.304
	c-3.627,4.706-7.737,10.165-9.311,15.295c-1.607,5.242,0.639,10.584,4.322,12.635c0.817,0.455,4.266,1.83,5.319,1.663
	c2.228-0.354,5.248-5.251,6.982-7.315c1.213-1.441,3.021-4.332,4.656-5.983c3.354-3.398,1.19,2.576,1.662,6.316
	c0.272,2.182,2.153,3.958,4.653,3.989c4.14,0.053,12.232-6.72,10.642-12.635C502.538,277.015,500.284,279.775,498.712,278.198z
	 M505.362,294.158c0.883,2.431,5.889,5.953,7.979,5.318c1.01-0.306,4.795-6.589,4.656-8.645c-0.205-3.014-7.504-5.991-10.31-4.987
	C505.214,286.731,504.175,290.892,505.362,294.158z M226.063,285.513c-1.268-0.479-1.065-2.938-1.33-3.657
	c-0.871-2.363-5.112-12.013-3.325-14.963c0.15-0.247,5.529-1.979,6.318-2.327c1.736-0.769,4.456-1.949,5.984-2.659
	c2.029-0.942,10.426-4.181,10.973-6.317c1.461-5.707-8.65-6.393-12.303-4.655c-2.143,1.02-4.35,4.176-7.314,6.317
	c-0.948,0.685-2.258,1.545-3.99,2.66c-1.17,0.754-5.425,4.091-3.658,0.997c5.252-9.188,10.549-15.526,15.961-23.607
	c1.541-2.302,5.67-5.912,5.319-8.645c-0.514-4.02-10.668-6.456-13.3-2.66c-1.17,1.688-1.495,3.9-2.66,5.651
	c-8.229,12.376-15.293,23.394-23.274,36.243c0-0.665,0-1.33,0-1.995c-1.595,1.261-3.525,3.445-6.318,5.652
	c-1.638,1.295-9.995,8.001-6.649,1.995c1.597-2.867,0.675-0.421,1.662-1.995c2.432-3.879,7.67-10.244,8.646-13.3
	c1.434-4.491-1.381-8.5-5.985-7.98c-2.417,0.272-5.526,3.852-7.98,5.985c-8.307,7.227-13.78,12.898-21.944,19.95
	c2.322-5.688,7.568-11.814,12.302-15.628c1.508-1.216,4.323-3.139,4.323-4.987c0-3.969-5.23-4.316-7.647-5.32
	c-1.394-0.579-2.281-1.968-3.658-1.662c-1.369,0.305-1.672,2.695-2.659,4.322c-4.252,7.005-14.784,18.48-15.961,27.93
	c-1.065,8.56,4.625,12.609,9.643,8.646c7.695-6.08,12.912-15.521,20.283-20.615c-3.383,6.1-6.074,18.511,0.997,21.28
	c6.715,2.629,11.769-8.209,15.628-10.973c-0.263,1.813-1.49,3.46-2.327,5.984c-0.112,0.337-2.165,5.815-0.666,7.314
	c1.048,1.047,4.811-0.123,5.653-0.665c2.479-1.596,2.962-4.895,4.654-7.647c1.1-1.787,7.883-11.559,8.978-11.305
	c0.92,0.213,2.672,6.287,4.323,8.978c1.384,2.255,4.303,6.334,5.984,7.647c6.684,5.22,15.323-2.566,12.636-9.644
	C231.012,281.515,228.575,286.465,226.063,285.513z"/>
<g>
	<g>
		<path fill="#C8A188" d="M187.802,116.973h10.248v2.172h-7.819v3.595h6.931v2.172h-6.931v3.712h7.918v2.172h-10.347V116.973z"/>
		<path fill="#C8A188" d="M201.683,128.781l1.461-1.738c1.323,1.146,2.666,1.797,4.364,1.797c1.5,0,2.448-0.711,2.448-1.737v-0.039
			c0-0.986-0.553-1.521-3.12-2.112c-2.942-0.711-4.601-1.579-4.601-4.126v-0.04c0-2.369,1.975-4.009,4.719-4.009
			c2.014,0,3.613,0.611,5.015,1.737l-1.303,1.836c-1.244-0.928-2.488-1.421-3.751-1.421c-1.422,0-2.251,0.73-2.251,1.639v0.039
			c0,1.066,0.632,1.54,3.297,2.172c2.922,0.712,4.423,1.759,4.423,4.049v0.039c0,2.587-2.034,4.127-4.936,4.127
			C205.336,130.991,203.342,130.261,201.683,128.781z"/>
		<path fill="#C8A188" d="M219.928,119.224h-4.383v-2.251h11.215v2.251h-4.383v11.57h-2.448v-11.57H219.928z"/>
		<path fill="#C8A188" d="M228.498,128.069h2.626v2.726h-2.626V128.069z"/>
	</g>
	<g>
		<path fill="#C8A188" d="M317.394,128.879l4.76-4.048c1.896-1.619,2.586-2.488,2.586-3.731c0-1.362-0.968-2.151-2.23-2.151
			s-2.133,0.689-3.18,2.072l-1.737-1.361c1.323-1.837,2.626-2.884,5.096-2.884c2.704,0,4.561,1.658,4.561,4.126v0.04
			c0,2.173-1.146,3.356-3.594,5.352l-2.844,2.369h6.575v2.133h-9.99v-1.916H317.394z"/>
		<path fill="#C8A188" d="M331.235,123.923v-0.04c0-3.948,2.407-7.147,6.042-7.147c3.612,0,6.002,3.159,6.002,7.108v0.039
			c0,3.949-2.409,7.148-6.042,7.148C333.604,131.031,331.235,127.872,331.235,123.923z M340.771,123.923v-0.04
			c0-2.725-1.401-4.955-3.534-4.955c-2.132,0-3.495,2.172-3.495,4.916v0.039c0,2.726,1.383,4.956,3.535,4.956
			C339.429,128.839,340.771,126.628,340.771,123.923z"/>
		<path fill="#C8A188" d="M349.401,119.342l-2.488,0.691l-0.514-1.976l3.731-1.185h1.678v13.92h-2.407V119.342z"/>
		<path fill="#C8A188" d="M363.42,127.694h-6.97l-0.454-1.737l7.681-9.082h2.073v8.826h1.975v1.993h-1.975v3.101h-2.33V127.694z
			 M363.42,125.7v-5.471l-4.541,5.471H363.42z"/>
	</g>
</g>
<g>
	<path fill="#C8BCB4" d="M385.508,37.878l-13.424-13.663c-1.929-1.964-4.508-3.046-7.263-3.046c-2.686,0-5.218,1.037-7.134,2.919
		l-14.966,14.701c-1.939,1.906-3.021,4.454-3.045,7.172c-0.022,2.72,1.013,5.286,2.918,7.227L356.02,66.85
		c1.93,1.964,4.51,3.046,7.265,3.046c2.685,0,5.218-1.036,7.133-2.918l14.964-14.702c1.94-1.904,3.021-4.452,3.046-7.173
		C388.452,42.383,387.414,39.817,385.508,37.878z"/>
	<path fill="#C8BCB4" d="M188.892,23.214c-12.218,0-22.159,9.939-22.159,22.158s9.94,22.159,22.159,22.159
		c12.219,0,22.159-9.94,22.159-22.159C211.05,33.154,201.11,23.214,188.892,23.214z"/>
	<path fill="#C8BCB4" d="M389.102,35.425l-13.423-13.663c-5.296-5.39-13.958-5.466-19.347-0.17l-14.964,14.701
		c-5.391,5.295-5.467,13.957-0.171,19.348l5.357,5.454l-68.563,60.523l-68.663-60.61c3.333-4.329,5.32-9.749,5.32-15.636
		c0-14.17-11.488-25.658-25.659-25.658c-14.171,0-25.659,11.488-25.659,25.658c0,14.172,11.488,25.659,25.659,25.659
		c6.845,0,13.059-2.687,17.659-7.055l68.32,60.309l-87.313,77.071l2.646,2.998l87.688-77.402l87.687,77.402l2.646-2.998
		l-87.313-77.071l68.351-60.334l5.258,5.352c5.296,5.39,13.958,5.467,19.347,0.171l14.964-14.702
		C394.321,49.477,394.396,40.814,389.102,35.425z M188.892,68.531c-12.77,0-23.159-10.391-23.159-23.159
		c0-12.77,10.389-23.158,23.159-23.158s23.159,10.389,23.159,23.158C212.051,58.141,201.661,68.531,188.892,68.531z M386.081,52.988
		L371.117,67.69c-2.104,2.067-4.886,3.205-7.834,3.205c-3.025,0-5.858-1.188-7.978-3.345l-13.424-13.662
		c-2.093-2.131-3.229-4.949-3.205-7.936c0.025-2.985,1.213-5.783,3.345-7.877l14.965-14.701c2.104-2.067,4.887-3.206,7.835-3.206
		c3.024,0,5.856,1.188,7.976,3.345l13.424,13.663c2.095,2.13,3.231,4.948,3.205,7.936S388.211,50.896,386.081,52.988z"/>
</g>
<path fill="#C8A188" d="M311.47,59.453h-26.305h-2.924h-26.306c-11.006,0-15.024,7.783-15.19,8.113l-0.653,1.31l1.308,0.651
	c0.311,0.156,7.861,3.81,29.151,3.81c3.977,0,8.089,0,14.712-0.732c1.229-0.052,1.331-1.064,1.47-2.455l0.45-4.506
	c0.363-0.205,0.679-0.346,0.904-0.346c2.191,0,5.846,2.193,9.5,2.193c3.652,0,6.574-2.193,8.767-2.193
	c1.462,0,2.191,2.193,3.654,2.193c1.461,0,2.922-1.463,2.922-3.654C312.931,60.914,311.47,59.453,311.47,59.453z M283.829,69.817
	c-5.822,0.598-9.608,0.598-13.278,0.598c-15.179,0-23.137-1.915-26.252-2.911c1.543-1.907,5.115-5.127,11.638-5.127h26.081
	c-0.076,2.093,0.033,4.624,0.955,5.115c0.289,0.153,0.67,0.107,1.094-0.042C283.979,68.311,283.895,69.163,283.829,69.817z
	 M288.087,63.837c-0.807,0-1.461-0.654-1.461-1.461c0-0.808,0.654-1.461,1.461-1.461s1.462,0.653,1.462,1.461
	C289.549,63.183,288.894,63.837,288.087,63.837z M297.587,63.837c-0.809,0-1.463-0.654-1.463-1.461c0-0.808,0.654-1.461,1.463-1.461
	c0.807,0,1.461,0.653,1.461,1.461C299.048,63.183,298.394,63.837,297.587,63.837z M306.354,63.837c-0.807,0-1.46-0.654-1.46-1.461
	c0-0.808,0.652-1.461,1.46-1.461s1.462,0.653,1.462,1.461C307.815,63.183,307.161,63.837,306.354,63.837z"/>
<path fill="#C8A188" d="M293.036,165.448c-0.695-2.337-1.786-4.528-3.476-6.275c-0.448-0.463-0.926-0.896-1.404-1.326
	c-0.374-0.338-1.302-0.887-1.496-1.342c0.985,2.319,1.972,4.723,1.229,7.264c-0.336,1.149-1.608,3.903-3.264,3.201
	c-1.566-0.664-1.384-3.948-1.519-5.272c-0.331-3.257-1.05-6.506-2.787-9.321c-0.945-1.535-2.184-2.9-3.743-3.826
	c-2.048-1.215-4.172-2.033-6.502-1.151c0.513-0.192,1.864,1.359,2.117,1.658c0.816,0.968,1.497,2.113,1.861,3.331
	c0.74,2.474,0.095,5.292-0.77,7.649c-1.789,4.881-4.773,9.271-6.206,14.289c-0.499,1.749-0.842,3.547-0.936,5.364
	c-0.294,5.73,2.68,10.979,7.392,14.185c1.069,0.727,2.97,1.638,4.324,1.168c-3.955-2.114-5.27-3.853-5.88-6.342
	c-1.416-5.771,3.985-9.437,6.32-14c0.622-1.217,1.073-2.552,0.916-3.93c-0.059-0.513-0.644-3.039-1.419-2.915
	c2.351-0.377,3.882,1.188,4.687,3.23c0.847,2.149,1.351,4.361,0.977,6.647c-0.125,0.767-0.701,3.156,0.407,3.313
	c1.526,0.214,2.835-1.811,2.522-3.762c-0.161-0.897-0.322-2.3-0.322-2.3c1.621,1.997,2.356,3.994,2.594,6.188
	c0.425,3.922-1.246,9.077-4.389,12.278c1.322-1.347,3.003-2.276,4.279-3.715c1.303-1.467,2.297-3.163,3.075-4.961
	c1.739-4.021,2.757-8.563,2.474-12.953C293.961,169.727,293.656,167.531,293.036,165.448z"/>
</svg>
